<?xml version="1.0" standalone="no"?>
<!DOCTYPE svg PUBLIC "-//W3C//DTD SVG 20010904//EN"
 "http://www.w3.org/TR/2001/REC-SVG-20010904/DTD/svg10.dtd">
<svg version="1.0" xmlns="http://www.w3.org/2000/svg"
 width="600.000000pt" height="58.000000pt" viewBox="0 0 600.000000 58.000000"
 preserveAspectRatio="xMidYMid meet">
<g transform="translate(0.000000,58.000000) scale(0.100000,-0.100000)"
fill="#000000" stroke="none">
<path d="M2967 427 c-31 -52 -48 -68 -112 -101 l-49 -27 -47 21 c-47 20 -64
20 -1196 20 -1129 0 -1149 0 -1186 -20 -20 -11 -44 -20 -52 -20 -9 0 -36 20
-61 45 -24 25 -48 45 -52 45 -4 0 -18 -16 -31 -35 -13 -19 -41 -42 -62 -52
-22 -9 -39 -20 -39 -24 0 -5 16 -16 36 -25 28 -13 61 -47 91 -93 1 -2 25 20
53 48 28 28 57 51 65 51 8 0 31 -11 51 -25 20 -14 46 -25 58 -25 12 0 525 0
1141 -1 616 -2 1131 1 1145 5 14 5 35 17 47 28 26 25 49 20 115 -22 33 -20 58
-47 79 -85 34 -61 50 -68 68 -28 19 42 69 101 99 116 15 7 37 20 50 28 19 12
25 12 45 0 76 -49 4 -46 1202 -48 681 -1 1134 2 1156 7 20 6 44 19 54 30 34
37 75 19 139 -60 18 -23 20 -23 30 -6 25 42 48 64 81 80 36 17 48 46 19 46
-22 0 -82 48 -89 71 -9 28 -19 24 -71 -26 -51 -50 -69 -54 -116 -25 -32 20
-51 20 -1186 20 l-1153 0 -41 -21 c-41 -21 -43 -21 -77 -3 -62 31 -98 62 -127
109 -16 25 -34 45 -41 45 -6 0 -22 -19 -36 -43z m64 -39 c24 -30 24 -55 -2
-69 -16 -8 -27 -8 -45 2 -29 15 -30 32 -6 64 21 30 29 31 53 3z m-2782 -73
c13 -14 27 -25 32 -25 19 0 8 -17 -31 -47 l-41 -31 -29 30 c-17 16 -30 32 -30
35 0 9 54 60 65 62 6 0 21 -11 34 -24z m5580 -6 l33 -31 -33 -28 c-41 -35 -41
-35 -64 -10 -10 11 -24 20 -32 20 -23 0 -14 22 20 51 17 16 34 28 37 28 3 0
20 -13 39 -30z m-2872 -1 c13 -12 23 -26 23 -31 0 -8 -38 -47 -45 -47 -12 0
-95 43 -95 48 0 7 75 49 89 51 3 1 15 -9 28 -21z m173 -4 c45 -18 44 -24 -15
-54 l-39 -20 -25 25 c-24 24 -24 25 -6 45 22 24 33 25 85 4z m-399 -6 c22 -6
39 -15 39 -19 0 -5 -16 -16 -36 -24 -32 -13 -180 -15 -1167 -15 -1151 0 -1197
1 -1197 36 0 7 12 17 28 22 41 16 2283 16 2333 0z m2868 1 c38 -13 40 -32 6
-47 -37 -17 -2271 -17 -2326 0 -48 14 -50 34 -6 47 48 14 2285 14 2326 0z
m-2565 -65 c20 -20 20 -25 -1 -63 -23 -40 -38 -39 -59 4 -16 34 -16 37 1 55
22 24 38 25 59 4z"/>
</g>
</svg>
